<svg width="194" height="164" viewBox="0 0 194 164" fill="none" xmlns="http://www.w3.org/2000/svg">
<g clip-path="url(#clip0_7240_1067)">
<path d="M179.296 78.891C179.296 120.956 145.196 155.057 103.131 155.057C61.0658 155.057 26.9651 120.956 26.9651 78.891C26.9651 36.8261 61.0658 2.72602 103.131 2.72602C145.196 2.72602 179.296 36.8261 179.296 78.891Z" fill="#5DFCA0"/>
<path d="M163.018 42.4722L143.619 124.163L141.065 134.912L137.118 151.526C135.234 159.451 127.285 164.35 119.361 162.465L51.6306 146.383C43.707 144.499 38.8073 136.55 40.6918 128.626L61.134 42.5477L66.5912 19.5718C66.8029 18.6852 67.0902 17.8336 67.4448 17.0279C70.253 10.6355 77.3075 6.95956 84.3452 8.63234L152.075 24.7142C159.999 26.5987 164.898 34.5472 163.018 42.4722Z" fill="#4B8DF8"/>
<path d="M122.769 161.688C121.735 161.688 120.684 161.568 119.635 161.319L51.903 145.234C47.66 144.226 44.3556 141.315 42.6808 137.62C42.6747 137.593 42.6693 137.566 42.664 137.539C51.9738 135.166 59.7693 128.966 64.2705 120.719L70.133 130.328C70.3015 130.604 70.5733 130.802 70.8881 130.877L110.435 140.269L70.2483 134.19C65.3803 141.074 57.7783 142.841 53.116 143.242L116.872 158.379C118.017 158.65 119.165 158.781 120.293 158.781C126.97 158.781 133.022 154.219 134.631 147.439L138.582 130.823L141.134 120.072L142.252 115.364L143.974 117.546L135.969 151.255C134.489 157.483 128.909 161.688 122.769 161.688ZM152.336 82.333C151.731 81.8448 151.084 81.4099 150.403 81.033L160.528 38.385C160.962 36.5598 161.036 34.734 160.797 32.9823C162.231 35.8303 162.614 39.0592 161.868 42.1985L152.336 82.333Z" fill="#694BD4"/>
<path d="M42.6814 137.62C42.6698 137.594 42.6581 137.568 42.6458 137.542C42.6512 137.541 42.6588 137.539 42.6643 137.537C42.6698 137.565 42.6753 137.593 42.6814 137.62Z" fill="#BBAEEC"/>
<path d="M55.5007 77.6073C55.0901 77.2803 54.6714 76.9627 54.2466 76.6546L67.7381 19.8435C68.5755 16.318 70.7357 13.3291 73.821 11.4277C75.988 10.0927 78.4288 9.40569 80.912 9.40569C81.9638 9.40569 83.023 9.52908 84.0721 9.77854L104.917 14.7295C104.572 14.96 104.218 15.1643 103.85 15.3423L86.4265 11.2039C85.2817 10.9322 84.1362 10.802 83.0088 10.802C76.3339 10.802 70.282 15.3673 68.6719 22.1467L55.5007 77.6073ZM156.77 28.1724C155.944 27.8042 155.072 27.5069 154.16 27.2905L131.513 21.9114C131.381 21.7388 131.254 21.5601 131.134 21.3767C131.031 21.2169 130.931 21.0531 130.836 20.8845L151.804 25.8645C153.628 26.2973 155.309 27.0855 156.77 28.1724Z" fill="#D0BDFF"/>
<path d="M119.635 161.319C126.912 163.048 134.24 158.533 135.969 151.255L161.868 42.1985C162.706 38.6722 162.12 35.032 160.219 31.9467C158.318 28.8614 155.329 26.7012 151.804 25.8644L84.0721 9.77854C80.5459 8.94046 76.9057 9.52703 73.8211 11.4277C70.7358 13.329 68.5755 16.3179 67.7381 19.8435L41.8387 128.9C40.11 136.178 44.6253 143.506 51.903 145.234L119.635 161.319ZM122.77 164.048C121.555 164.048 120.322 163.908 119.089 163.615L51.3582 147.53C42.8137 145.501 37.5135 136.899 39.5429 128.354L65.4423 19.2981C66.4254 15.1596 68.9612 11.6509 72.5832 9.41916C76.2045 7.18745 80.4791 6.49973 84.6176 7.48277L152.349 23.568C156.488 24.551 159.996 27.0875 162.228 30.7088C164.459 34.3301 165.147 38.6048 164.164 42.7432L138.264 151.8C136.528 159.112 129.977 164.048 122.77 164.048Z" fill="#000072"/>
<path d="M67.2513 104.377C67.2513 122.625 52.4586 137.415 34.2138 137.415C30.8763 137.415 27.657 136.919 24.6196 135.995H24.6162L3.23961 141.993L9.1325 125.875C4.1735 120.1 1.17989 112.589 1.17989 104.377C1.17989 86.1323 15.9692 71.343 34.2138 71.343C52.4586 71.343 67.2513 86.1323 67.2513 104.377Z" fill="#19AFF9"/>
<path d="M6.84966 135.555L10.2406 126.28C10.3872 125.879 10.3058 125.43 10.0276 125.106C5.0829 119.348 2.35986 111.987 2.35986 104.377C2.35986 86.8126 16.6495 72.5229 34.2138 72.5229C35.4995 72.5229 36.7664 72.5997 38.0124 72.7481C37.8971 72.7467 37.7818 72.746 37.6659 72.746C19.4213 72.746 4.6319 87.5354 4.6319 105.78C4.6319 113.992 7.62544 121.503 12.5845 127.278L9.9293 134.542L6.84966 135.555Z" fill="#AFE3FD"/>
<path d="M8.15852 139.387L9.92927 134.542L22.0912 130.545H22.0946C24.7181 131.218 27.4622 131.575 30.2824 131.575C30.767 131.575 31.2538 131.564 31.7427 131.543C44.1135 130.999 54.5959 123.72 59.805 113.399L62.8337 118.364C57.6454 128.939 46.766 136.235 34.2137 136.235C31.0603 136.235 27.9481 135.774 24.963 134.867C24.8515 134.832 24.7346 134.815 24.6178 134.815C24.5095 134.815 24.4013 134.83 24.2976 134.859L8.15852 139.387Z" fill="#117AD0"/>
<path d="M5.13871 140.234L6.84965 135.555L9.92929 134.542L8.15854 139.387L5.13871 140.234Z" fill="#7A9ED3"/>
<path d="M34.2138 72.5228C16.6495 72.5228 2.35986 86.8126 2.35986 104.377C2.35986 111.987 5.08289 119.348 10.0276 125.106C10.3058 125.43 10.3872 125.879 10.2406 126.28L5.13872 140.234L24.2977 134.859C24.5133 134.799 24.7482 134.801 24.963 134.867C27.9482 135.774 31.0604 136.235 34.2138 136.235C51.7803 136.235 66.0714 121.944 66.0714 104.377C66.0714 86.8126 51.7803 72.5228 34.2138 72.5228ZM3.2396 143.173C2.9157 143.173 2.60029 143.039 2.37382 142.794C2.07311 142.469 1.97939 142.003 2.1315 141.587L7.78975 126.112C2.76117 120.008 -3.05176e-05 112.318 -3.05176e-05 104.377C-3.05176e-05 85.5113 15.3484 70.163 34.2138 70.163C53.0816 70.163 68.4312 85.5113 68.4312 104.377C68.4312 123.244 53.0816 138.595 34.2138 138.595C30.9444 138.595 27.7143 138.133 24.6079 137.223L3.55838 143.129C3.4532 143.158 3.34593 143.173 3.2396 143.173Z" fill="#000072"/>
<path d="M75.6354 23.1371L56.1682 105.109L71.1686 129.696L125.567 142.615C127.665 143.113 129.768 141.817 130.267 139.718L153.559 41.6435L75.6354 23.1371Z" fill="white"/>
<path d="M71.2758 129.548L125.606 142.451C126.576 142.681 127.578 142.521 128.428 141.997C129.278 141.474 129.872 140.651 130.103 139.68L153.356 41.7683L75.7608 23.3401L56.3482 105.08L71.2758 129.548ZM126.477 142.891C126.161 142.891 125.843 142.854 125.527 142.779L71.0614 129.844L55.9882 105.137L56.0044 105.07L75.5107 22.9342L75.6745 22.9733L153.762 41.5182L153.723 41.682L130.431 139.758C130.18 140.816 129.531 141.714 128.605 142.284C127.955 142.684 127.222 142.891 126.477 142.891Z" fill="#000072"/>
<path d="M71.9413 128.632L125.847 141.434C126.546 141.6 127.268 141.484 127.88 141.107C128.492 140.731 128.92 140.138 129.086 139.438L152.098 42.5437L76.5355 24.5982L57.4641 104.903L71.9413 128.632ZM126.479 143.936C126.082 143.936 125.682 143.889 125.286 143.796L70.8881 130.877C70.5733 130.802 70.3016 130.604 70.133 130.328L55.1326 105.74C54.9654 105.467 54.9135 105.14 54.9877 104.828L74.4549 22.8567C74.529 22.5438 74.7252 22.2728 74.999 22.1042C75.2727 21.935 75.6031 21.8824 75.9159 21.9566L153.839 40.4623C154.153 40.5372 154.423 40.7327 154.592 41.0064C154.761 41.2808 154.814 41.6105 154.739 41.9234L131.447 139.999C131.132 141.329 130.317 142.457 129.154 143.173C128.336 143.677 127.415 143.936 126.479 143.936Z" fill="#000072"/>
<path d="M58.6501 106.911L70.6832 126.635L73.5055 114.75C73.7644 113.659 73.583 112.534 72.9958 111.58C72.4079 110.627 71.4842 109.958 70.3939 109.7L58.6501 106.911ZM71.1686 130.876C70.7614 130.876 70.3777 130.666 70.1613 130.311L55.1609 105.723C54.9128 105.316 54.9337 104.801 55.2135 104.415C55.4933 104.03 55.9774 103.851 56.4406 103.96L70.9394 107.404C72.6425 107.808 74.0867 108.852 75.005 110.343C75.9233 111.833 76.2058 113.592 75.8013 115.295L72.3168 129.968C72.2063 130.434 71.826 130.786 71.3534 130.862C71.292 130.871 71.23 130.876 71.1686 130.876Z" fill="#000072"/>
<path d="M70.694 126.588L58.6959 106.922L70.3939 109.699C71.4842 109.958 72.4079 110.627 72.9958 111.58C73.5831 112.534 73.7644 113.659 73.5055 114.75L70.694 126.588Z" fill="#BDC0D2"/>
<path d="M70.6831 126.635L58.6501 106.911L58.6959 106.922L70.6939 126.588L70.6831 126.635Z" fill="#0B0E70"/>
<path d="M70.9427 129.416L56.3657 105.524L70.4707 108.874C71.8239 109.195 72.9708 110.024 73.7003 111.208C74.4299 112.391 74.6544 113.788 74.3328 115.141L70.9427 129.416ZM58.65 106.911L70.6831 126.635L70.6939 126.588L73.5055 114.75C73.7644 113.659 73.583 112.534 72.9958 111.58C72.4078 110.627 71.4841 109.958 70.3939 109.7L58.6959 106.922L58.65 106.911Z" fill="#0B0E70"/>
<path d="M71.0817 130.291L55.6572 105.009L70.549 108.545C71.9892 108.888 73.2102 109.77 73.987 111.03C74.7637 112.291 75.003 113.779 74.6612 115.219L71.0817 130.291ZM56.3658 105.524L70.9428 129.416L74.3328 115.141C74.6545 113.788 74.4299 112.391 73.7004 111.208C72.9709 110.024 71.824 109.195 70.4708 108.874L56.3658 105.524Z" fill="#000072"/>
<path d="M81.9516 131.009L72.5973 128.788L75.8013 115.295C75.8201 115.217 75.837 115.14 75.8525 115.062L79.9808 116.043C82.8699 116.728 84.6567 119.624 83.9689 122.513L81.9516 131.009Z" fill="#B2B2D4"/>
<path d="M81.6732 132.181L76.6906 130.968L72.3317 129.906L72.5973 128.788L81.9517 131.009L81.6732 132.181Z" fill="#000072"/>
<path d="M72.3317 129.906L71.472 129.697L72.6823 124.401L74.8735 114.83L75.8525 115.062C75.837 115.14 75.8202 115.217 75.8013 115.295L72.5973 128.788L72.3317 129.906Z" fill="#000072"/>
<path d="M149.881 51.8798L74.3186 33.9343L76.0514 26.6378L151.614 44.5825L149.881 51.8798Z" fill="#B2B2D4"/>
<path d="M150.71 52.0767L149.881 51.8798L151.614 44.5825L152.444 44.7801L150.71 52.0767ZM74.3186 33.9343L73.138 33.6539L74.8708 26.3573L76.0514 26.6378L74.3186 33.9343Z" fill="#000072"/>
<path d="M118.337 16.1419C116.1 15.6106 114.719 13.3694 115.25 11.1323C115.781 8.89589 118.023 7.51505 120.26 8.04635C122.496 8.57697 123.877 10.8188 123.346 13.0552C122.815 15.2917 120.573 16.6732 118.337 16.1419ZM155.766 35.2868C154.091 32.5656 151.378 30.4856 148.022 29.688L140.166 27.8223C130.811 25.6007 127.446 21.1636 128.263 11.0197C128.959 6.64461 126.175 2.4057 121.793 1.36468C117.634 0.376924 113.464 2.61201 111.901 6.44908C111.892 6.46864 111.884 6.49157 111.876 6.51112C108.016 16.4028 103.002 18.9966 93.4656 16.7319L85.7308 14.8946C79.0214 13.3013 72.2953 17.4486 70.7027 24.1545L157.282 44.716C158.078 41.363 157.44 38.004 155.766 35.2868Z" fill="#B5B4BF"/>
<path d="M119.298 8.10166C117.491 8.10166 115.849 9.33887 115.414 11.1714C115.168 12.2098 115.34 13.2811 115.899 14.1886C116.458 15.0962 117.338 15.7313 118.376 15.9781C120.517 16.4878 122.673 15.1582 123.182 13.0161C123.691 10.8748 122.362 8.71858 120.221 8.21021C119.912 8.13671 119.602 8.10166 119.298 8.10166ZM119.298 16.4237C118.968 16.4237 118.633 16.386 118.298 16.3057C117.172 16.0387 116.218 15.3497 115.612 14.3653C115.005 13.3809 114.819 12.2192 115.086 11.0939C115.638 8.77116 117.976 7.32897 120.299 7.88185C122.621 8.43404 124.062 10.7716 123.51 13.0944C123.038 15.0813 121.258 16.4237 119.298 16.4237ZM70.907 24.0298L157.156 44.513C157.859 41.3644 157.317 38.126 155.622 35.3751C153.899 32.5744 151.186 30.613 147.983 29.8525L140.127 27.9869C130.543 25.7107 127.282 21.1083 128.095 11.0063C128.781 6.69317 125.995 2.53651 121.754 1.52921C117.77 0.583255 113.6 2.72462 112.057 6.51315L112.031 6.5772C108.194 16.4069 103.152 19.205 93.4264 16.8957L85.6916 15.0584C79.1414 13.5023 72.5461 17.5207 70.907 24.0298ZM157.407 44.9189L157.243 44.8805L70.4998 24.2792L70.5389 24.1154C72.1503 17.3292 78.9816 13.1186 85.7698 14.7307L93.5047 16.5674C103.021 18.8281 107.958 16.086 111.718 6.44978L111.745 6.3837C113.376 2.38077 117.618 0.198946 121.832 1.20086C126.243 2.2493 129.141 6.57316 128.429 11.046C127.635 20.9249 130.826 25.4315 140.205 27.6585L148.061 29.5241C151.352 30.3062 154.139 32.3209 155.909 35.1985C157.68 38.0734 158.227 41.4682 157.446 44.7551L157.407 44.9189Z" fill="#000072"/>
<path d="M73.163 23.5262L72.1826 23.2935C72.4854 22.4278 72.8852 21.6201 73.3679 20.8778C74.3982 19.2913 75.8067 18.0042 77.437 17.1148C79.0679 16.2255 80.918 15.734 82.8349 15.734C83.6993 15.734 84.5778 15.8338 85.4583 16.0428L93.1932 17.8801C95.3622 18.3945 97.335 18.6744 99.1581 18.675C99.1588 18.675 99.1595 18.675 99.1608 18.675C100.767 18.675 102.259 18.4546 103.639 17.9779C104.674 17.6212 105.644 17.1196 106.54 16.475C107.213 15.9922 107.845 15.4293 108.44 14.7901C109.332 13.8307 110.139 12.6993 110.888 11.3946C111.633 10.092 112.321 8.61477 112.97 6.95211C112.975 6.94064 112.979 6.93119 112.981 6.92445L112.986 6.91232L112.987 6.90895L112.988 6.90828L112.993 6.8948C113.559 5.50587 114.521 4.36169 115.714 3.56137C116.908 2.76241 118.329 2.31201 119.81 2.31201C120.374 2.31201 120.945 2.37674 121.52 2.51294C122.206 2.6761 122.845 2.92894 123.428 3.25594C123.408 3.25122 123.388 3.2465 123.369 3.24178C122.704 3.08401 122.04 3.0085 121.385 3.0085C117.944 3.0085 114.792 5.09998 113.478 8.32552C113.47 8.3444 113.458 8.36529 113.449 8.38754C110.442 16.0941 106.735 19.3702 100.734 19.3702C99.0327 19.3702 97.1476 19.1072 95.0419 18.6069L87.3078 16.7703C86.3375 16.5397 85.3666 16.4292 84.4112 16.4292C79.6282 16.4292 75.2275 19.1962 73.163 23.5262ZM120.878 18.1302C120.559 18.1302 120.235 18.0932 119.912 18.0163C119.38 17.8902 118.898 17.6677 118.476 17.3711C118.753 17.4142 119.029 17.4358 119.302 17.4358C119.908 17.4358 120.499 17.3319 121.053 17.1391C121.885 16.8485 122.634 16.3577 123.232 15.7071C123.83 15.0578 124.277 14.2453 124.494 13.3283C124.584 12.9514 124.631 12.5725 124.639 12.1983C125.026 13.0202 125.147 13.9756 124.921 14.9303C124.466 16.8438 122.761 18.1302 120.878 18.1302Z" fill="#DEDDE2"/>
<path d="M118.337 16.1419L118.609 14.9943C118.264 14.9121 117.951 14.7745 117.673 14.5938C117.255 14.3228 116.915 13.9513 116.681 13.5205C116.445 13.0896 116.317 12.6028 116.316 12.0985C116.317 11.8706 116.342 11.6394 116.398 11.4054C116.481 11.0595 116.617 10.7467 116.798 10.4689C117.069 10.0515 117.441 9.7117 117.872 9.4764C118.302 9.24109 118.79 9.11231 119.294 9.11231C119.521 9.11231 119.753 9.13862 119.987 9.1939C120.332 9.27616 120.645 9.41302 120.924 9.59372C121.341 9.86476 121.681 10.2363 121.916 10.6671C122.151 11.0979 122.28 11.5854 122.28 12.0897C122.28 12.3176 122.253 12.5489 122.198 12.7828C122.116 13.1281 121.979 13.4409 121.798 13.7194C121.527 14.1367 121.156 14.4765 120.725 14.7118C120.294 14.9465 119.807 15.0759 119.302 15.0759C119.075 15.0759 118.843 15.0496 118.609 14.9943L118.337 16.1419L118.064 17.2901C118.478 17.3879 118.893 17.4357 119.302 17.4357C119.908 17.4357 120.499 17.3319 121.053 17.1391C121.885 16.8485 122.634 16.3577 123.232 15.707C123.83 15.0577 124.277 14.2453 124.494 13.3283C124.592 12.915 124.639 12.499 124.639 12.0897C124.639 11.4843 124.536 10.893 124.343 10.3387C124.053 9.50741 123.562 8.75834 122.911 8.15962C122.261 7.56158 121.449 7.11524 120.532 6.89813C120.119 6.79969 119.703 6.75249 119.294 6.75249C118.689 6.75249 118.097 6.85632 117.543 7.04915C116.711 7.33907 115.962 7.83059 115.364 8.48056C114.766 9.13052 114.32 9.94298 114.102 10.8599C114.004 11.2732 113.957 11.6892 113.957 12.0985C113.957 12.704 114.06 13.2953 114.254 13.8495C114.543 14.6808 115.034 15.4299 115.685 16.0279C116.335 16.626 117.147 17.0723 118.064 17.2901L118.337 16.1419ZM155.766 35.2868L156.77 34.6685C155.855 33.1798 154.654 31.8664 153.223 30.8153C151.792 29.7635 150.128 28.9753 148.295 28.5404L140.438 26.6748C138.386 26.1873 136.664 25.5967 135.25 24.882C134.189 24.3467 133.302 23.7439 132.564 23.0616C132.01 22.5498 131.537 21.9929 131.134 21.3766C130.532 20.4523 130.083 19.3904 129.78 18.1363C129.477 16.8829 129.325 15.4373 129.325 13.776C129.325 12.9433 129.363 12.0567 129.439 11.1141L128.263 11.0197L129.428 11.2051C129.509 10.6927 129.549 10.1817 129.549 9.67598C129.549 7.47123 128.796 5.37301 127.485 3.69349C126.83 2.85339 126.034 2.11712 125.122 1.52379C124.209 0.931139 123.181 0.482106 122.065 0.217132C121.311 0.0377853 120.555 -0.0485221 119.81 -0.0478479C117.849 -0.0478479 115.973 0.548174 114.401 1.60133C112.829 2.65381 111.556 4.16814 110.808 6.00409L111.901 6.44908L110.814 5.9906C110.806 6.01083 110.799 6.02567 110.795 6.03645L110.79 6.0486L110.789 6.05128V6.05264L110.777 6.08231C110.044 7.9587 109.276 9.54451 108.461 10.8559C107.85 11.8396 107.213 12.6689 106.545 13.358C106.044 13.8758 105.526 14.3147 104.984 14.6842C104.17 15.2391 103.305 15.6409 102.346 15.9106C101.387 16.1796 100.334 16.3152 99.1581 16.3152C97.5791 16.3158 95.7809 16.0691 93.7379 15.5836L86.0031 13.747C84.9432 13.4948 83.8813 13.3742 82.8349 13.3742C79.7395 13.3742 76.7931 14.432 74.4346 16.2727C73.2547 17.1937 72.2211 18.3109 71.3891 19.5913C70.5571 20.8717 69.9266 22.3152 69.5545 23.8821C69.4041 24.5159 69.7958 25.1517 70.4303 25.3027L157.01 45.8642C157.312 45.9357 157.637 45.8838 157.901 45.7206C158.165 45.5574 158.358 45.2911 158.43 44.9891C158.682 43.9298 158.802 42.8679 158.802 41.8222C158.802 39.2506 158.072 36.7809 156.77 34.6679V34.6685L155.766 35.2868L154.761 35.9057C155.839 37.6561 156.442 39.6983 156.442 41.8222C156.442 42.6859 156.343 43.5637 156.134 44.4436L157.282 44.716L157.554 43.5684L70.9751 23.007L70.7027 24.1545L71.8509 24.4269C72.1597 23.1256 72.6802 21.9349 73.3679 20.8777C74.3982 19.2912 75.8066 18.0041 77.4369 17.1148C79.0679 16.2255 80.918 15.734 82.8349 15.734C83.6993 15.734 84.5778 15.8338 85.4583 16.0428L93.1932 17.8801C95.3622 18.3945 97.335 18.6743 99.1581 18.675C100.765 18.675 102.258 18.4545 103.639 17.9778C104.674 17.6212 105.644 17.1195 106.54 16.475C107.213 15.9922 107.845 15.4292 108.44 14.7901C109.332 13.8306 110.139 12.6992 110.888 11.3946C111.636 10.0886 112.324 8.60799 112.975 6.93993L111.876 6.51112L112.962 6.9696C112.971 6.94937 112.977 6.93453 112.981 6.92442L112.986 6.91229L112.987 6.90892L112.988 6.90825L112.993 6.89476C113.559 5.50584 114.521 4.36166 115.714 3.56134C116.908 2.7617 118.329 2.3113 119.81 2.31198C120.374 2.31198 120.945 2.37671 121.52 2.5129C122.37 2.71517 123.146 3.05431 123.836 3.50267C124.869 4.17421 125.709 5.0932 126.289 6.15714C126.869 7.22109 127.189 8.4273 127.189 9.67598C127.189 10.0589 127.159 10.4453 127.098 10.8336L127.086 10.9247C127.006 11.9219 126.965 12.8712 126.965 13.776C126.965 15.9147 127.196 17.8086 127.704 19.4949C128.085 20.7591 128.624 21.9039 129.332 22.924C129.862 23.6893 130.486 24.3831 131.196 25.0061C132.264 25.9406 133.525 26.7139 134.971 27.3618C136.419 28.0098 138.055 28.5337 139.893 28.9706L147.75 30.8362C149.273 31.1982 150.643 31.8489 151.826 32.7173C153.009 33.5857 154.002 34.6726 154.76 35.9051L154.761 35.9057L155.766 35.2868Z" fill="#000072"/>
<path d="M123.383 30.613C121.325 30.613 118.458 30.2388 115.35 29.5005C109.462 28.1022 104.937 25.9284 105.242 24.6447C105.335 24.2503 105.853 24.0837 106.695 24.0837C108.589 24.0837 112.131 24.9245 116.206 25.8927C122.094 27.2904 126.867 28.4245 126.561 29.7082C126.417 30.3137 125.223 30.613 123.383 30.613Z" fill="#C8C7CF"/>
<path d="M79.8467 46.6437L120.765 56.3607C121.398 56.5118 122.034 56.1194 122.185 55.4856C122.336 54.8518 121.944 54.2153 121.309 54.065L80.3921 44.3472C79.7577 44.1969 79.1219 44.5886 78.9715 45.223C78.8205 45.8568 79.2122 46.4926 79.8467 46.6437Z" fill="#000072"/>
<path d="M69.3003 94.4112L110.218 104.128C110.852 104.279 111.489 103.887 111.639 103.253C111.789 102.619 111.397 101.983 110.764 101.833L69.8457 92.1148C69.2113 91.9644 68.5755 92.3562 68.4251 92.9906C68.2741 93.6244 68.6665 94.2602 69.3003 94.4112Z" fill="#000072"/>
<path d="M76.6083 57.6876L129.939 70.6572C130.572 70.811 131.21 70.4226 131.364 69.7895C131.518 69.1564 131.13 68.5179 130.497 68.3642L77.1659 55.3946C76.5328 55.2409 75.8943 55.6292 75.7406 56.2623C75.5862 56.8954 75.9752 57.5339 76.6083 57.6876Z" fill="#000072"/>
<path d="M31.6065 117.258H34.3459C35.2838 117.258 36.0436 118.018 36.0436 118.955V121.695C36.0436 122.633 35.2838 123.393 34.3459 123.393H31.6065C30.6693 123.393 29.909 122.633 29.909 121.695V118.955C29.909 118.018 30.6693 117.258 31.6065 117.258ZM30.1985 110.255C30.1985 107.593 30.8352 105.221 33.3238 101.69C36.1596 97.6388 36.912 95.1502 36.912 92.0831C36.912 89.1893 35.7544 88.0896 33.729 88.0896C31.7029 88.0896 30.5459 89.1893 30.5459 92.0831V95.1731C30.5459 95.8959 29.9599 96.4818 29.2374 96.4818H25.835C25.1125 96.4818 24.5267 95.8959 24.5267 95.1731V92.4883C24.5267 86.0062 27.652 82.3027 33.8443 82.3027C40.0371 82.3027 43.2775 86.0062 43.2775 92.4883C43.2775 96.0186 42.1785 98.9704 39.0527 103.137C36.5641 106.494 35.7544 108.461 35.7544 110.487V110.958C35.7544 111.912 34.981 112.686 34.027 112.686H31.9261C30.972 112.686 30.1985 111.912 30.1985 110.958V110.255Z" fill="#976CFF"/>
<path d="M30.4502 122.937C30.1169 122.628 29.909 122.186 29.909 121.696V118.955C29.909 118.541 30.0574 118.161 30.3046 117.867C30.0576 118.161 29.9091 118.541 29.9091 118.955V121.695C29.9091 122.186 30.1173 122.628 30.4502 122.937ZM35.5259 98.0575C36.579 95.9027 36.9107 94.1213 36.9107 92.0831C36.9107 90.4555 36.544 89.3943 35.8637 88.7787C36.5453 89.3943 36.9121 90.4548 36.9121 92.0831C36.9121 94.1207 36.5797 95.9027 35.5259 98.0575ZM27.1211 96.4825H25.8366C25.1118 96.4825 24.5252 95.8959 24.5252 95.1752V92.4877C24.5252 88.7591 25.5603 85.9503 27.6176 84.237C25.5607 85.9509 24.5268 88.7598 24.5268 92.4883V95.1731C24.5268 95.8959 25.1125 96.4818 25.8351 96.4818H27.1196C27.12 96.4818 27.1205 96.4825 27.1211 96.4825Z" fill="#AFE3FD"/>
<path d="M32.7574 123.391H31.6078C31.1601 123.391 30.7529 123.219 30.4502 122.937C30.1172 122.628 29.909 122.186 29.909 121.695V118.955C29.909 118.541 30.0576 118.161 30.3045 117.867C30.6154 117.495 31.0833 117.26 31.6078 117.26H34.3452C34.7127 117.26 35.0532 117.374 35.3296 117.576H33.7485C32.8113 117.576 32.0495 118.338 32.0495 119.275V122.012C32.0495 122.583 32.3293 123.085 32.7574 123.391ZM33.0642 112.685H31.9247C30.9707 112.685 30.1989 111.912 30.1989 110.958V110.254C30.1989 107.594 30.8358 105.221 33.3238 101.691C34.2758 100.331 34.9932 99.1464 35.5258 98.0575C36.5796 95.9026 36.912 94.1206 36.912 92.0831C36.912 90.4548 36.5453 89.3942 35.8636 88.7787C35.7139 88.6431 35.5494 88.5292 35.3701 88.4355C35.5285 88.4159 35.6971 88.4085 35.869 88.4085C37.8951 88.4085 39.0514 89.5075 39.0514 92.4034C39.0514 95.4678 38.2996 97.9591 35.4645 102.008C32.9765 105.538 32.3394 107.911 32.3394 110.574V111.279C32.3394 111.859 32.6259 112.371 33.0642 112.685ZM27.1195 96.4818H25.835C25.1125 96.4818 24.5267 95.8959 24.5267 95.1731V92.4883C24.5267 88.7598 25.5607 85.9509 27.6176 84.237C29.137 82.9715 31.2141 82.304 33.8429 82.304C34.9386 82.304 35.9432 82.4179 36.8534 82.6472C36.5736 82.631 36.2837 82.6202 35.987 82.6202C29.7943 82.6202 26.6693 86.3251 26.6693 92.8079V95.492C26.6693 95.8885 26.844 96.2425 27.1195 96.4818Z" fill="#DBCCFF"/>
<path d="M74.1636 69.3978L127.494 82.3667C128.127 82.5204 128.765 82.132 128.92 81.4989C129.073 80.8658 128.685 80.228 128.052 80.0736L74.7212 67.1047C74.0881 66.951 73.4502 67.3393 73.2958 67.9724C73.1421 68.6055 73.5305 69.2434 74.1636 69.3978Z" fill="#000072"/>
<path d="M33.729 86.9097C35.7193 86.9097 38.092 87.8071 38.092 92.0831C38.092 95.666 37.0968 98.3575 34.29 102.367C31.8654 105.807 31.3786 107.935 31.3786 110.255V110.959C31.3786 111.26 31.624 111.506 31.9261 111.506H34.027C34.3291 111.506 34.5745 111.26 34.5745 110.959V110.487C34.5745 108.088 35.5312 105.906 38.1055 102.434C41.0168 98.5524 42.0976 95.8581 42.0976 92.4883C42.0976 86.5125 39.3211 83.4825 33.8443 83.4825C28.4446 83.4825 25.7067 86.5125 25.7067 92.4883V95.1731C25.7067 95.2439 25.7641 95.3012 25.8349 95.3012H29.2374C29.3082 95.3012 29.3658 95.2439 29.3658 95.1731V92.0831C29.3658 87.8071 31.7387 86.9097 33.729 86.9097ZM34.027 113.866H31.9261C30.3228 113.866 29.0187 112.562 29.0187 110.959V110.255C29.0187 107.551 29.5867 104.943 32.359 101.011C35.1941 96.9605 35.7322 94.7483 35.7322 92.0831C35.7322 89.4846 34.7842 89.2695 33.729 89.2695C32.6732 89.2695 31.7259 89.4846 31.7259 92.0831V95.1731C31.7259 96.5452 30.6093 97.661 29.2374 97.661H25.8349C24.4631 97.661 23.3469 96.5452 23.3469 95.1731V92.4883C23.3469 85.2652 27.173 81.1227 33.8443 81.1227C40.5894 81.1227 44.4574 85.2652 44.4574 92.4883C44.4574 96.3806 43.2067 99.5651 39.9967 103.845C37.4474 107.284 36.9343 108.937 36.9343 110.487V110.959C36.9343 112.562 35.6303 113.866 34.027 113.866ZM31.6065 118.438C31.3213 118.438 31.0887 118.67 31.0887 118.955V121.695C31.0887 121.981 31.3213 122.213 31.6065 122.213H34.3466C34.6318 122.213 34.8637 121.981 34.8637 121.695V118.955C34.8637 118.67 34.6318 118.438 34.3466 118.438H31.6065ZM34.3466 124.572H31.6065C30.02 124.572 28.7291 123.281 28.7291 121.695V118.955C28.7291 117.369 30.02 116.078 31.6065 116.078H34.3466C35.9331 116.078 37.2236 117.369 37.2236 118.955V121.695C37.2236 123.281 35.9331 124.572 34.3466 124.572Z" fill="#000072"/>
<path d="M15.6342 118.804C12.2802 118.804 9.20562 114.752 8.65308 109.465C8.07682 103.952 10.4619 99.1842 13.9803 98.816C14.1254 98.8012 14.2658 98.7938 14.4005 98.7938C17.5312 98.7938 17.908 102.824 18.4604 108.11C19.0367 113.623 19.5853 118.413 16.0669 118.781C15.9224 118.796 15.7779 118.804 15.6342 118.804Z" fill="#53C3FB"/>
<path d="M189.957 131.421L153.53 85.2551C153.065 84.6645 152.548 84.119 151.986 83.6302L151.984 83.6275C150.701 82.4968 149.192 81.6399 147.545 81.1187L137.894 78.0705L132.244 76.2811C130.621 75.7707 128.996 77.0524 129.116 78.7494L129.539 84.6631L130.26 94.7571C130.375 96.3288 130.785 97.8559 131.462 99.2583L131.464 99.2603C131.852 100.067 132.33 100.832 132.89 101.541L169.173 147.524C173.68 153.236 182.163 154.375 187.846 149.834C190.656 147.588 192.304 144.423 192.695 141.105C193.087 137.764 192.207 134.271 189.957 131.421Z" fill="#FFBE06"/>
<path d="M189.957 131.421L186.629 127.202L165.989 143.488L169.173 147.524C173.68 153.236 182.163 154.375 187.846 149.834C190.656 147.588 192.304 144.423 192.695 141.105C193.087 137.764 192.207 134.271 189.957 131.421Z" fill="#FE4A27"/>
<path d="M166.226 143.516L169.306 147.42C171.472 150.165 174.732 151.972 178.249 152.376C181.712 152.773 185.085 151.824 187.741 149.702C190.425 147.556 192.125 144.495 192.528 141.085C192.931 137.64 191.971 134.245 189.825 131.525L186.601 127.439L166.226 143.516ZM179.792 152.801C179.268 152.801 178.741 152.772 178.211 152.71C174.605 152.296 171.263 150.444 169.041 147.629L165.752 143.461L186.657 126.965L190.09 131.316C192.292 134.107 193.277 137.59 192.862 141.124C192.449 144.624 190.706 147.763 187.952 149.966C185.632 151.82 182.78 152.801 179.792 152.801Z" fill="#000072"/>
<path d="M151.986 83.6302L151.984 83.6275C150.701 82.4968 149.192 81.6399 147.545 81.1187L137.894 78.0705L132.244 76.2811C130.621 75.7707 128.996 77.0524 129.116 78.7494L129.539 84.6631L130.26 94.7571C130.375 96.3288 130.785 97.8559 131.462 99.2583L131.464 99.2603C134.139 100.839 138.629 100.405 138.911 95.7894C144.169 97.9193 147.578 94.7996 146.761 89.5958C150.58 90.9747 153.488 87.199 151.986 83.6302Z" fill="#FFDC9C"/>
<path d="M131.604 99.1295C133.206 100.054 135.233 100.164 136.666 99.4025C137.91 98.7418 138.623 97.4884 138.728 95.7779L138.744 95.523L138.98 95.6194C141.378 96.591 143.493 96.4959 144.934 95.3524C146.372 94.2109 146.972 92.1235 146.58 89.6241L146.531 89.3173L146.823 89.4232C148.408 89.9943 149.991 89.6646 151.061 88.5386C152.229 87.3088 152.529 85.4256 151.831 83.7333C150.576 82.6336 149.108 81.8057 147.489 81.2939L132.188 76.4563C131.474 76.2304 130.728 76.368 130.141 76.8312C129.553 77.295 129.247 77.9895 129.299 78.7366L130.443 94.7443C130.555 96.2741 130.946 97.7493 131.604 99.1295ZM134.5 100.272C133.437 100.272 132.328 99.9837 131.371 99.4187L131.297 99.3378C130.604 97.9017 130.193 96.3651 130.077 94.7705L128.933 78.7622C128.872 77.9046 129.239 77.0753 129.913 76.5433C130.587 76.0113 131.48 75.8475 132.299 76.1057L147.6 80.9433C149.273 81.4726 150.789 82.3296 152.106 83.4899L152.156 83.5587C152.928 85.394 152.603 87.4477 151.327 88.7914C150.219 89.9579 148.614 90.3482 146.984 89.8628C147.305 92.3656 146.649 94.4604 145.162 95.6403C143.66 96.8317 141.506 96.9746 139.075 96.0509C138.867 98.2098 137.754 99.2407 136.839 99.7269C136.152 100.092 135.34 100.272 134.5 100.272Z" fill="#390075"/>
<path d="M187.188 148.805C187.89 147.419 188.336 145.927 188.516 144.402C188.908 141.061 188.028 137.568 185.779 134.718L182.554 130.632L185.781 128.086L189.005 132.172C190.978 134.673 191.861 137.795 191.49 140.962C191.125 144.058 189.599 146.838 187.188 148.805Z" fill="#B1343E"/>
<path d="M176.603 123.089L150.203 89.6316C150.614 89.4239 150.993 89.1428 151.327 88.7915C152.053 88.0269 152.471 87.0311 152.554 85.9772C152.562 85.9867 152.57 85.9961 152.578 86.0062L179.83 120.543L176.603 123.089Z" fill="#B28527"/>
<path d="M149.97 89.3363L149.352 88.5521C148.886 87.9622 148.369 87.4161 147.808 86.9272L147.806 86.9245C146.523 85.7945 145.013 84.9369 143.366 84.4164L133.715 81.3682L132.254 80.905L132.008 77.4805L147.178 82.277C149.132 82.8946 150.859 84.0226 152.203 85.5558C152.21 86.671 151.817 87.7417 151.061 88.5387C150.739 88.8778 150.371 89.1441 149.97 89.3363Z" fill="#B29A8F"/>
<path d="M150.203 89.6316L149.97 89.3362C150.371 89.1441 150.739 88.8778 151.061 88.5386C151.817 87.7417 152.21 86.671 152.203 85.5558C152.323 85.6927 152.44 85.8336 152.554 85.9772C152.471 87.031 152.053 88.0269 151.327 88.7915C150.993 89.1427 150.614 89.4239 150.203 89.6316Z" fill="#280074"/>
<path d="M179.79 151.42C179.32 151.42 178.845 151.393 178.369 151.338C175.126 150.965 172.122 149.301 170.126 146.772L167.046 142.869L168.917 141.393L171.997 145.296C174.625 148.626 178.606 150.402 182.595 150.402C183.435 150.402 184.275 150.324 185.102 150.164C183.473 150.99 181.663 151.42 179.79 151.42Z" fill="#FFC0B4"/>
<path d="M161.094 135.327L133.842 100.789C133.682 100.587 133.531 100.38 133.386 100.168C133.757 100.237 134.131 100.272 134.5 100.272C135.109 100.272 135.703 100.177 136.245 99.9865L142.344 107.716C148.414 108.268 153.443 115.714 153.151 121.411L162.966 133.85L161.094 135.327Z" fill="#FFE8A8"/>
<path d="M134.499 99.9069C134.037 99.9069 133.566 99.8483 133.103 99.733C132.16 98.2065 131.601 96.4791 131.472 94.6701L130.446 80.3325L132.254 80.9049L132.364 82.4348L133.084 92.5294C133.198 94.1004 133.609 95.6276 134.286 97.03L134.288 97.0327C134.675 97.839 135.154 98.6036 135.714 99.3129L136.004 99.6804C135.532 99.8321 135.022 99.9069 134.499 99.9069Z" fill="#FFF3DC"/>
<path d="M134.5 100.272C134.131 100.272 133.757 100.237 133.386 100.168C133.288 100.025 133.194 99.8799 133.103 99.7329C133.566 99.8482 134.037 99.9069 134.499 99.9069C135.022 99.9069 135.532 99.832 136.004 99.6803L136.245 99.9864C135.703 100.177 135.109 100.272 134.5 100.272Z" fill="#BAA6CF"/>
<path d="M132.254 80.905L130.446 80.3326L130.327 78.6618C130.298 78.2613 130.462 77.8891 130.778 77.6403C130.994 77.4697 131.249 77.3821 131.511 77.3821C131.633 77.3821 131.755 77.401 131.877 77.4387L132.008 77.4805L132.254 80.905Z" fill="#E4DCD8"/>
<path d="M131.511 77.382C131.249 77.382 130.993 77.4697 130.778 77.6403C130.462 77.8891 130.298 78.2613 130.327 78.6618L131.472 94.6701C131.631 96.9106 132.451 99.0264 133.842 100.789L170.126 146.772C172.122 149.301 175.126 150.965 178.369 151.338C181.556 151.705 184.652 150.833 187.089 148.885C189.557 146.914 191.12 144.1 191.49 140.962C191.861 137.795 190.978 134.673 189.005 132.172L152.578 86.0062C151.186 84.2431 149.319 82.9533 147.178 82.277L131.877 77.4387C131.755 77.4009 131.633 77.382 131.511 77.382ZM179.793 153.847C179.23 153.847 178.662 153.815 178.092 153.749C174.212 153.304 170.614 151.309 168.221 148.276L131.937 102.292C130.244 100.146 129.246 97.5707 129.05 94.8434L127.905 78.835C127.82 77.6376 128.332 76.4786 129.275 75.7342C130.217 74.9905 131.463 74.7627 132.609 75.1254L147.909 79.963C150.516 80.7863 152.789 82.3566 154.482 84.5027L190.91 130.669C193.285 133.678 194.347 137.434 193.9 141.246C193.455 145.023 191.574 148.409 188.604 150.781C186.097 152.785 183.017 153.847 179.793 153.847Z" fill="#000072"/>
<path d="M180.173 120.487L160.919 135.679C160.025 136.385 159.872 137.684 160.578 138.579L163.762 142.615C164.469 143.51 165.767 143.663 166.663 142.957L185.916 127.765C186.811 127.058 186.964 125.76 186.258 124.865L183.073 120.829C182.367 119.934 181.068 119.781 180.173 120.487Z" fill="#B5B4BF"/>
<path d="M181.449 120.211C181.024 120.211 180.615 120.352 180.277 120.619L161.024 135.811C160.626 136.125 160.375 136.575 160.315 137.078C160.256 137.581 160.396 138.077 160.71 138.475L163.895 142.51C164.208 142.908 164.658 143.16 165.161 143.219C165.665 143.279 166.16 143.138 166.558 142.825L185.812 127.632C186.209 127.319 186.461 126.869 186.52 126.366C186.58 125.863 186.439 125.367 186.125 124.969L182.941 120.934C182.627 120.536 182.177 120.284 181.674 120.224C181.599 120.216 181.523 120.211 181.449 120.211ZM165.388 143.57C165.299 143.57 165.211 143.564 165.122 143.554C164.529 143.484 163.999 143.187 163.63 142.719L160.445 138.684C160.076 138.215 159.911 137.631 159.981 137.038C160.05 136.446 160.347 135.916 160.816 135.546L180.068 120.354C180.537 119.985 181.122 119.82 181.714 119.89C182.306 119.96 182.836 120.256 183.206 120.725L186.39 124.761C186.76 125.228 186.925 125.813 186.855 126.405C186.785 126.998 186.488 127.528 186.02 127.897L166.766 143.089C166.369 143.403 165.887 143.57 165.388 143.57Z" fill="#000072"/>
<path d="M181.426 131.092C181.805 130.39 181.756 129.5 181.23 128.834L178.044 124.795C177.636 124.279 177.032 124.01 176.423 124.01C176.245 124.01 176.067 124.033 175.893 124.079L180.277 120.619C180.615 120.352 181.024 120.212 181.449 120.212C181.523 120.212 181.599 120.216 181.674 120.224C182.177 120.284 182.627 120.536 182.941 120.934L186.125 124.969C186.439 125.367 186.579 125.863 186.52 126.366C186.461 126.869 186.209 127.319 185.811 127.632L181.426 131.092Z" fill="#7E7EA8"/>
<path d="M180.889 131.732C181.117 131.551 181.297 131.333 181.426 131.092L185.812 127.632C186.209 127.319 186.461 126.869 186.52 126.366C186.579 125.863 186.439 125.367 186.125 124.969L182.941 120.934C182.627 120.536 182.177 120.284 181.674 120.224C181.599 120.216 181.523 120.212 181.449 120.212C181.024 120.212 180.615 120.352 180.277 120.619L175.893 124.079C175.629 124.149 175.374 124.274 175.146 124.454L180.174 120.486C180.553 120.187 181.004 120.042 181.451 120.042C182.061 120.042 182.665 120.311 183.072 120.828L186.259 124.866C186.964 125.76 186.811 127.058 185.917 127.764L180.889 131.732Z" fill="#000072"/>
<path d="M165.388 143.233C165.313 143.233 165.237 143.229 165.161 143.219C164.658 143.16 164.208 142.908 163.895 142.51L160.71 138.475C160.396 138.077 160.256 137.581 160.315 137.078C160.375 136.575 160.626 136.125 161.024 135.811L162.762 134.439C162.384 135.142 162.433 136.032 162.958 136.698L166.145 140.737C166.553 141.253 167.156 141.522 167.766 141.522C167.944 141.522 168.122 141.499 168.296 141.453L166.558 142.825C166.22 143.091 165.812 143.233 165.388 143.233Z" fill="#E5E5E9"/>
<path d="M165.384 143.401C164.775 143.401 164.171 143.132 163.763 142.616L160.577 138.578C159.871 137.683 160.024 136.386 160.918 135.68L163.3 133.801C163.072 133.981 162.892 134.199 162.762 134.439L161.024 135.811C160.626 136.125 160.375 136.575 160.315 137.078C160.256 137.581 160.396 138.077 160.71 138.475L163.895 142.51C164.208 142.908 164.658 143.16 165.161 143.219C165.237 143.229 165.313 143.233 165.388 143.233C165.812 143.233 166.22 143.091 166.558 142.825L168.296 141.453C168.561 141.382 168.815 141.258 169.043 141.078L166.661 142.958C166.282 143.257 165.832 143.401 165.384 143.401Z" fill="#A6A6CE"/>
<path d="M181.451 121.257C181.26 121.257 181.076 121.32 180.925 121.439L161.671 136.632C161.493 136.773 161.38 136.974 161.353 137.2C161.327 137.426 161.389 137.649 161.53 137.827L164.715 141.863C164.856 142.042 165.058 142.155 165.284 142.181C165.509 142.207 165.732 142.145 165.911 142.004L185.164 126.812C185.343 126.671 185.456 126.469 185.483 126.243C185.509 126.018 185.446 125.795 185.305 125.617L182.121 121.58C181.979 121.402 181.778 121.289 181.552 121.262C181.518 121.258 181.484 121.257 181.451 121.257ZM165.39 144.615C165.26 144.615 165.13 144.607 164.999 144.592C164.129 144.489 163.352 144.055 162.809 143.366L159.625 139.331C159.083 138.644 158.84 137.786 158.943 136.916C159.046 136.047 159.481 135.269 160.168 134.726L179.421 119.534C180.109 118.992 180.966 118.748 181.836 118.852C182.706 118.955 183.483 119.39 184.026 120.077L187.211 124.113C187.753 124.8 187.995 125.658 187.892 126.528C187.79 127.398 187.355 128.175 186.668 128.718L167.414 143.91C166.83 144.371 166.123 144.615 165.39 144.615Z" fill="#000072"/>
<path d="M134.502 101.297C133.254 101.297 131.96 100.962 130.848 100.306C130.724 100.233 130.613 100.137 130.522 100.026C130.1 99.5057 130.178 98.7398 130.698 98.3177C131.118 97.9766 131.695 97.9611 132.124 98.2409C133.409 98.9792 135.071 99.0837 136.184 98.493C137.107 98.0022 137.617 97.0677 137.7 95.7152C137.724 95.3255 137.934 94.9708 138.264 94.7632C138.595 94.5548 139.005 94.5178 139.367 94.6647C141.406 95.4907 143.156 95.4489 144.293 94.5461C145.433 93.6412 145.895 91.9058 145.562 89.7839C145.496 89.3598 145.657 88.9324 145.988 88.6593C146.32 88.3869 146.77 88.3087 147.173 88.4544C148.379 88.8899 149.523 88.662 150.314 87.8293C151.202 86.8942 151.422 85.4412 150.877 84.1237C150.659 83.6349 150.785 83.0409 151.22 82.6869C151.74 82.2642 152.503 82.3417 152.926 82.8622L152.928 82.8649C153.001 82.9539 153.061 83.0531 153.105 83.1596C154.036 85.3717 153.631 87.8604 152.074 89.5008C151.015 90.6159 149.602 91.1668 148.094 91.094C148.09 93.3662 147.29 95.2655 145.802 96.4467C144.258 97.6725 142.187 97.9921 139.87 97.3866C139.458 98.8389 138.582 99.9669 137.322 100.636C136.491 101.078 135.511 101.297 134.502 101.297Z" fill="#000072"/>
<path d="M129.537 85.8761C128.949 85.8761 128.431 85.4473 128.339 84.8479C128.237 84.1851 128.69 83.5655 129.353 83.463C132.963 82.9054 135.39 80.9906 136.772 77.6093C137.025 76.989 137.734 76.6903 138.354 76.9452C138.974 77.1987 139.272 77.9073 139.018 78.5276C137.31 82.7045 134.183 85.1722 129.724 85.8613C129.661 85.8714 129.599 85.8761 129.537 85.8761Z" fill="#000072"/>
<path d="M137.894 78.0705L132.243 76.2824C130.622 75.7693 128.995 77.0531 129.116 78.7488L129.539 84.6631C133.566 84.0408 136.353 81.8422 137.894 78.0705Z" fill="#000072"/>
</g>
<defs>
<clipPath id="clip0_7240_1067">
<rect width="194" height="164" fill="white"/>
</clipPath>
</defs>
</svg>
